<?xml version="1.0" standalone="no"?><!DOCTYPE svg PUBLIC "-//W3C//DTD SVG 1.1//EN" "http://www.w3.org/Graphics/SVG/1.1/DTD/svg11.dtd"><svg t="1608401050168" class="icon" viewBox="0 0 1024 1024" version="1.1" xmlns="http://www.w3.org/2000/svg" p-id="78743" width="16" height="16" xmlns:xlink="http://www.w3.org/1999/xlink"><defs><style type="text/css"></style></defs><path d="M979.8656 551.0144c0 63.3856-12.3904 123.904-37.1712 181.5552-24.7808 57.6512-58.0608 107.4176-99.9424 149.2992-41.7792 41.8816-91.648 75.1616-149.2992 99.9424C635.904 1006.4896 575.3856 1018.88 512 1018.88s-123.904-12.3904-181.5552-37.1712c-57.6512-24.7808-107.4176-58.0608-149.2992-99.9424-41.7792-41.7792-75.1616-91.5456-99.9424-149.2992C56.5248 674.9184 44.1344 614.4 44.1344 551.0144c0-73.9328 16.384-143.5648 49.0496-208.9984 32.6656-65.3312 78.6432-120.2176 138.0352-164.4544 17.408-13.0048 36.864-18.0224 58.1632-15.2576 21.2992 2.8672 38.2976 13.0048 50.8928 30.4128 13.0048 17.1008 18.0224 36.2496 14.9504 57.5488-3.072 21.2992-13.1072 38.5024-30.208 51.5072-39.8336 30.1056-70.5536 66.8672-92.2624 110.2848-21.7088 43.52-32.5632 89.8048-32.5632 138.8544 0 42.2912 8.192 82.5344 24.6784 120.9344s38.7072 71.5776 66.6624 99.6352c28.0576 28.0576 61.2352 50.2784 99.6352 66.6624 38.4 16.4864 78.6432 24.6784 120.9344 24.6784s82.5344-8.192 120.9344-24.6784 71.5776-38.7072 99.6352-66.6624c28.0576-28.0576 50.2784-61.2352 66.6624-99.6352 16.4864-38.4 24.6784-78.6432 24.6784-120.9344 0-49.152-10.8544-95.4368-32.5632-138.8544-21.7088-43.4176-52.4288-80.1792-92.2624-110.2848-17.1008-13.0048-27.136-30.208-30.208-51.5072-3.072-21.2992 1.9456-40.5504 14.9504-57.5488 12.5952-17.408 29.5936-27.648 51.2-30.4128 21.504-2.8672 40.8576 2.2528 57.856 15.2576C852.1728 221.7984 898.1504 276.6848 930.816 342.016c32.6656 65.4336 49.0496 135.0656 49.0496 208.9984zM590.0288 83.1488V473.088c0 21.0944-7.68 39.424-23.1424 54.784-15.4624 15.4624-33.6896 23.1424-54.784 23.1424s-39.3216-7.68-54.784-23.1424C441.856 512.4096 434.176 494.1824 434.176 473.088V83.1488c0-21.0944 7.68-39.3216 23.1424-54.784C472.6784 12.8 490.9056 5.12 512 5.12s39.3216 7.68 54.784 23.1424c15.4624 15.4624 23.2448 33.792 23.2448 54.8864z" fill="#d81e06" p-id="78744"></path></svg>