<?xml version="1.0" standalone="no"?><!DOCTYPE svg PUBLIC "-//W3C//DTD SVG 1.1//EN" "http://www.w3.org/Graphics/SVG/1.1/DTD/svg11.dtd"><svg t="1608393036294" class="icon" viewBox="0 0 1024 1024" version="1.1" xmlns="http://www.w3.org/2000/svg" p-id="37498" width="128" height="128" xmlns:xlink="http://www.w3.org/1999/xlink"><defs><style type="text/css"></style></defs><path d="M236.75 600.88c-18.62 26.87-30.24 56.51-34.95 88.87h-92.14c-12.12 0-22.61-4.38-31.46-13.23-8.86-8.76-13.23-19.25-13.23-31.26v-44.38c0-24.03 8.85-44.9 26.56-62.51 17.61-17.61 38.59-26.37 62.82-26.37h89.42c24.21 0 45.09 8.76 62.82 26.37-27.88 14.86-51.23 35.63-69.84 62.51zM136.23 441.25c-17.68-17.61-26.56-38.39-26.56-62.51 0-24.02 8.88-44.89 26.56-62.51 17.64-17.62 38.61-26.36 62.84-26.36 24.24 0 45.12 8.74 62.82 26.36 17.63 17.62 26.56 38.38 26.56 62.51 0 24.02-8.84 44.9-26.56 62.51-17.71 17.61-38.59 26.37-62.82 26.37-24.23 0-45.2-8.76-62.84-26.37z m522.28 353.97c0 9.24 2.74 18.52 8.36 27.78h-356.1c-18.62 0-34.41-6.51-47.44-19.44-13.05-12.93-19.55-28.72-19.55-47.24V716.1c0-28.71 7.22-55.27 21.66-79.81 14.47-24.53 34.02-43.97 58.65-58.32 24.67-14.34 51.45-21.48 80.37-21.48h12.49c30.76 14.75 62.35 22.19 95.05 22.19l13.93-1.44c3.65 4.59 8.36 8.36 13.96 11.11l11.21 6.92v11.09h-1.42c-10.29 5.59-18.66 12.02-25.16 19.45-13.02 14.77-16.31 31.45-9.74 50 11.16 36.12 29.79 68.5 55.88 97.21 11.21 11.09 24.64 16.7 40.52 16.7 10.25 0 21.87-3.67 34.92-11.1l2.75-1.43h2.74c2.74 2.75 5.11 4.17 7.03 4.17v13.86h-0.11zM433.68 491.23c-24.25-13.83-43.26-32.87-57.22-56.89-13.93-24.02-20.99-49.99-20.99-77.79 0-27.78 7.06-53.63 20.99-77.76 13.96-24.13 32.79-43.06 56.52-56.91 23.71-13.83 49.79-20.87 78.2-20.87 28.42 0 54.67 6.92 78.9 20.87 24.25 13.85 43.29 32.88 57.22 56.91 13.96 24.01 21.01 49.98 21.01 77.76 0 23.11-5.12 45.32-15.37 66.68l-4.19 1.44-11.21-5.6c-8.34-4.57-17.22-6.92-26.58-6.92-15.88 0-29.33 5.59-40.51 16.69-21.51 23.11-38.21 50.39-50.33 81.96l-4.15 1.43h-4.19c-27.8-0.23-53.86-7.15-78.1-21z m519.53 159.63c4.68 2.76 6.5 6.93 5.59 12.52-9.27 29.63-25.14 55.99-47.44 79.1-3.78 3.67-7.94 4.18-12.53 1.43l-34.95-19.45c-15.87 12.93-33.07 22.7-51.6 29.12v41.65c0 5.58-2.75 8.74-8.37 9.66-30.75 6.51-61.38 6.51-92.13 0-5.62-0.92-8.34-4.17-8.34-9.66v-41.65c-18.66-6.51-35.86-16.19-51.65-29.12l-36.36 19.45c-4.66 2.75-8.85 2.35-12.52-1.43-21.47-23.1-36.76-49.47-46.12-79.1-1.94-5.58 0-9.68 5.62-12.52l34.9-20.87c-3.75-19.46-3.75-38.9 0-58.33l-34.9-20.88c-4.7-2.76-6.5-6.91-5.62-12.52 9.27-29.62 24.65-56 46.12-79.1 3.67-3.66 7.86-4.58 12.52-2.75l36.36 20.87c15.79-12.94 32.98-22.7 51.65-29.12v-41.64c0-5.59 2.72-8.75 8.34-9.67 30.74-6.51 61.37-6.51 92.13 0 5.62 0.92 8.37 4.17 8.37 9.67v41.64c18.64 6.5 35.83 16.18 51.6 29.12l34.95-19.45c4.69-2.74 8.85-2.34 12.53 1.43 22.3 23.11 38.17 49.46 47.44 79.1 0.91 5.61-0.91 9.66-5.59 12.52l-36.26 20.88c3.67 19.45 4.18 38.89 1.43 58.32l34.83 20.78z m-147.35-2.76c13.42-12.94 20.05-28.71 19.55-47.23-0.51-18.53-7.24-34.21-20.27-47.23-13.05-12.93-28.83-19.45-47.45-19.45s-34.73 6.51-48.17 19.45c-13.54 12.93-20.04 28.71-19.52 47.23 0.47 18.52 7.22 34.2 20.21 47.23 13.05 12.93 28.86 19.45 47.48 19.45s34.73-6.51 48.17-19.45z m0 0" p-id="37499" fill="#1296db"></path></svg>