<?xml version="1.0" standalone="no"?><!DOCTYPE svg PUBLIC "-//W3C//DTD SVG 1.1//EN" "http://www.w3.org/Graphics/SVG/1.1/DTD/svg11.dtd"><svg t="1608398271640" class="icon" viewBox="0 0 1024 1024" version="1.1" xmlns="http://www.w3.org/2000/svg" p-id="44050" width="48" height="48" xmlns:xlink="http://www.w3.org/1999/xlink"><defs><style type="text/css"></style></defs><path d="M1006.003456 438.2208L538.189056 39.3216a47.1808 47.1808 0 0 0-52.7104 0.0256L17.997056 438.4c-34.2784 23.4752-16.3072 73.7792 26.368 73.7536h57.6768v174.592c0 143.36 96.8704 263.808 228.6848 300.0832 33.1776 9.1392 66.0736-15.4624 66.0736-49.8688v-74.4192c0-60.16 43.9808-113.8944 103.8848-119.6032A115.2256 115.2256 0 0 1 627.200256 857.6v79.36c0 34.4064 32.896 58.9824 66.0736 49.8688 131.8144-36.2752 228.6848-156.7232 228.6848-300.0832V512h57.6768c42.7008 0 60.6464-50.304 26.368-73.7792z m-344.448 149.6576a38.3744 38.3744 0 0 1-49.6128-22.0416c-15.3344-39.8592-55.552-66.6368-100.1216-66.6368-44.2368 0-84.352 26.496-99.8656 65.9456a38.4 38.4 0 0 1-71.4752-28.032c26.9312-68.608 95.7952-114.688 171.3408-114.688 76.1088 0 145.1264 46.5408 171.776 115.8144a38.4 38.4 0 0 1-22.0416 49.6384z" fill="#F74A05" opacity=".98" p-id="44051"></path></svg>