<?xml version="1.0" standalone="no"?><!DOCTYPE svg PUBLIC "-//W3C//DTD SVG 1.1//EN" "http://www.w3.org/Graphics/SVG/1.1/DTD/svg11.dtd"><svg t="1608400262700" class="icon" viewBox="0 0 1024 1024" version="1.1" xmlns="http://www.w3.org/2000/svg" p-id="69352" width="16" height="16" xmlns:xlink="http://www.w3.org/1999/xlink"><defs><style type="text/css"></style></defs><path d="M972.8 972.8H51.2c3.072-27.136 3.072-54.272 9.216-79.872C84.48 791.04 145.408 716.8 236.544 667.136c7.168-4.096 22.528-2.56 29.184 2.56 145.92 116.224 348.672 116.224 491.52-1.024 6.144-5.12 18.944-9.216 24.576-6.656 112.64 58.88 193.024 168.96 190.976 310.784z" fill="#45BBD5" p-id="69353"></path><path d="M770.56 424.448c0.512 136.704-116.224 251.904-255.488 252.416-147.456 0.512-261.12-110.592-261.632-256-0.512-137.728 116.224-251.904 258.048-251.904 141.824 0.512 258.56 115.2 259.072 255.488z" fill="#45BBD5" p-id="69354"></path><path d="M208.384 516.096c-43.008 4.608-86.016-21.504-105.984-64-20.48-43.52-12.8-97.792 23.04-128.512 21.504-17.92 33.28-38.912 44.544-62.976 69.632-145.92 239.616-231.936 398.848-204.8 139.776 23.552 236.544 100.864 294.4 228.864 4.608 10.24 13.824 19.456 23.04 27.136 39.424 32.768 54.272 83.456 37.376 130.56-16.896 46.08-60.416 76.288-110.08 74.24v-28.16c1.536-69.12 3.584-138.24 5.12-207.36 0-6.144-5.12-12.8-8.192-18.944-125.952-223.232-451.072-231.936-589.312-15.36-12.288 18.944-12.8 36.864-11.776 58.88 3.584 65.024 1.024 130.56 1.024 195.584 0 5.12-1.024 10.24-2.048 14.848z" fill="#45BBD5" p-id="69355"></path></svg>