<?xml version="1.0" standalone="no"?><!DOCTYPE svg PUBLIC "-//W3C//DTD SVG 1.1//EN" "http://www.w3.org/Graphics/SVG/1.1/DTD/svg11.dtd"><svg t="1608477243941" class="icon" viewBox="0 0 1024 1024" version="1.1" xmlns="http://www.w3.org/2000/svg" p-id="29309" width="16" height="16" xmlns:xlink="http://www.w3.org/1999/xlink"><defs><style type="text/css"></style></defs><path d="M892.96 144H320a67.04 67.04 0 0 0 0 133.92h572.96a65.6 65.6 0 0 0 64-66.4 65.6 65.6 0 0 0-64-67.04z m0 299.68H320a67.36 67.36 0 0 0 0 133.92h572.96a67.36 67.36 0 0 0 0-133.92z m0 302.4H320A67.04 67.04 0 0 0 320 880h572.96a67.04 67.04 0 1 0 0-133.92zM128 144a65.28 65.28 0 0 0-64 66.88 64 64 0 0 0 63.04 66.56H128a65.12 65.12 0 0 0 63.04-64A65.12 65.12 0 0 0 129.44 144z m0 299.68a65.28 65.28 0 0 0-64 66.88 65.28 65.28 0 0 0 62.56 67.84H128a65.44 65.44 0 0 0 63.04-66.08A65.28 65.28 0 0 0 128 444.64z m0 302.4a65.28 65.28 0 0 0-64 66.88v0.96A65.28 65.28 0 0 0 128 880a65.28 65.28 0 0 0 63.04-66.08A65.44 65.44 0 0 0 128 746.88z" fill="#d81e06" p-id="29310"></path></svg>